<svg xmlns="http://www.w3.org/2000/svg" width="3662.82" height="568.17" viewBox="0 0 3662.82 568.17"><title>bee</title><path d="M5458.79,7231.64c74,120.56,263.71,147.14,368,51.55,23.59-21.62,43.87-52.25,37.76-83.66s-51.55-51.8-71.77-27c-6.34,7.78-8.84,18-9.42,28.07-2.81,48.82,37.34,92.09,83.57,108s96.9,10.32,145.06,1.84a1319.62,1319.62,0,0,0,308.94-94.63c89-39.75,183-90.76,278.23-69.93,33.24,7.27,65.84,24.64,83.47,53.74s16,71-9.48,93.54-73.58,14.36-84.45-17.88c-9.58-28.39,12.18-59.7,39.81-71.29s58.94-8.59,88.68-5c282,34,562.87,103.05,846.2,83.46,30.21-2.09,60.95-5.34,88.61-17.66,68.15-30.34,101.33-106.41,128.46-175.9,20.77-53.19,41.8-111.46,25-166s-91-92.55-133.12-54c-23.69,29.93-13.53,76.62,13.08,104s65,39.45,102.28,47.64c166.76,36.65,346,13.55,498-64.18,105.34-53.86,202-134.32,319.4-149.14,116.75-14.74,230.14,38.61,335.74,90.54,42.07,20.69,91.3,54.51,83.05,100.65-44.36-21.64-50.36-86.93-24.84-129.18s71.66-66.8,115.58-89.34" transform="translate(-5455.29 -6776.43)" fill="none" stroke="#1a1a1a" stroke-linecap="round" stroke-linejoin="round" stroke-width="7" stroke-dasharray="5 13"/></svg>