<svg xmlns="http://www.w3.org/2000/svg" width="5725.48" height="489.98" viewBox="0 0 5725.48 489.98"><title>clouds</title><path d="M7406.76,7299.35c1,2.12.88,4.56.73,6.89a10.44,10.44,0,0,1-1.23,5.14c-1.72,2.63-5.28,3.17-8.41,3.44q-30.08,2.56-60.32,2.15c-15.77-.21-31.52-1-47.26-1.86-3.89-.2-9-1.66-8.88-5.56.11-3.05,3.72-4.74,6.78-4.74,6.7,0,14.41,4.29,19.41-.16,1.52-1.35,2.44-3.33,4.17-4.39,3.64-2.23,8.08.72,12.08,2.18a4.55,4.55,0,0,0,3.76.09c2.58-1.47,1-5.31.24-8.19-1.6-6.21,3.37-12.9,9.62-14.29s12.94,1.78,16.92,6.81c1.14,1.44,2.14,3.06,3.68,4.07s3.86,1.14,5-.29a11.5,11.5,0,0,0,1.09-2.24c1.92-3.86,7.37-3.76,11.63-3.1,3.24.51,6.95,1,9.67,3,2.11,1.55,3.08,5.79,5.15,6.79C7395.77,7297.56,7403,7291.31,7406.76,7299.35Z" transform="translate(-6131.09 -6992.3)" fill="#ea96ed"/><path d="M8419.16,7414.76c1,2.12.88,4.56.73,6.89a10.44,10.44,0,0,1-1.23,5.14c-1.72,2.63-5.28,3.17-8.41,3.44q-30.08,2.56-60.32,2.15c-15.77-.21-31.52-1-47.26-1.86-3.89-.2-9-1.66-8.88-5.56.11-3.05,3.72-4.74,6.78-4.74,6.7,0,14.41,4.29,19.41-.16,1.52-1.35,2.44-3.33,4.17-4.39,3.64-2.23,8.08.72,12.08,2.18a4.55,4.55,0,0,0,3.76.09c2.58-1.47,1-5.31.24-8.19-1.6-6.21,3.37-12.9,9.62-14.29s12.94,1.78,16.92,6.81c1.14,1.44,2.14,3.06,3.68,4.07s3.86,1.14,5-.29a11.5,11.5,0,0,0,1.09-2.24c1.92-3.86,7.37-3.76,11.63-3.1,3.24.51,6.95,1,9.67,3,2.11,1.55,3.08,5.79,5.15,6.79C8408.17,7413,8415.43,7406.73,8419.16,7414.76Z" transform="translate(-6131.09 -6992.3)" fill="#ea96ed"/><path d="M7636.51,7071.13c-1.3,2.79-1.16,6-1,9.09.15,2.35.34,4.81,1.62,6.77,2.26,3.47,7,4.18,11.09,4.54q39.68,3.38,79.56,2.84c20.8-.28,41.57-1.37,62.34-2.46,5.13-.27,11.9-2.2,11.71-7.33-.14-4-4.91-6.26-8.94-6.26-8.83,0-19,5.66-25.61-.21-2-1.78-3.22-4.4-5.5-5.79-4.8-2.94-10.65.95-15.94,2.87-1.6.58-3.47,1-5,.12-3.4-1.94-1.29-7-.31-10.8,2.11-8.19-4.44-17-12.69-18.85s-17.07,2.35-22.32,9c-1.51,1.9-2.83,4-4.86,5.36s-5.09,1.51-6.62-.38a15.17,15.17,0,0,1-1.44-2.95c-2.54-5.09-9.72-5-15.34-4.08-4.28.67-9.16,1.32-12.75,4-2.78,2-4.06,7.64-6.79,9C7651,7068.78,7641.44,7060.54,7636.51,7071.13Z" transform="translate(-6131.09 -6992.3)" fill="#ea96ed"/><path d="M6498.6,7334.5c-1.3,2.79-1.16,6-1,9.09.15,2.35.34,4.81,1.62,6.77,2.26,3.47,7,4.18,11.09,4.54q39.68,3.38,79.56,2.84c20.8-.28,41.57-1.37,62.34-2.46,5.13-.27,11.9-2.2,11.71-7.33-.14-4-4.91-6.26-8.94-6.26-8.83,0-19,5.66-25.61-.21-2-1.78-3.22-4.4-5.5-5.79-4.8-2.94-10.65.95-15.94,2.87-1.6.58-3.47,1-5,.12-3.4-1.94-1.29-7-.31-10.8,2.11-8.19-4.44-17-12.69-18.85s-17.07,2.35-22.32,9c-1.51,1.9-2.83,4-4.86,5.36s-5.09,1.51-6.62-.38a15.17,15.17,0,0,1-1.44-2.95c-2.54-5.09-9.72-5-15.34-4.08-4.28.67-9.16,1.32-12.75,4-2.78,2-4.06,7.64-6.79,9C6513.09,7332.15,6503.52,7323.91,6498.6,7334.5Z" transform="translate(-6131.09 -6992.3)" fill="#ea96ed"/><path d="M7174.27,7099.53c.73-1.83,1.74-3.78,3.59-4.45a6.94,6.94,0,0,1,3.68,0,41.54,41.54,0,0,1,12.66,4.72c3-5.76,8.6-10.67,15.1-10.89s13.08,5.86,11.73,12.22c3.68.35,7.19-3.34,10.67-2.08,2.43.88,3.42,3.73,4.09,6.23.83,3.06,1.36,7-1.27,8.78a7.65,7.65,0,0,1-2.26.9c-10.08,2.83-20.38,5.5-30.84,5.15C7190.62,7119.76,7168.52,7113.94,7174.27,7099.53Z" transform="translate(-6131.09 -6992.3)" fill="#ea96ed"/><path d="M6612.53,7179.66c.73-1.83,1.74-3.78,3.59-4.45a6.94,6.94,0,0,1,3.68,0,41.54,41.54,0,0,1,12.66,4.72c3-5.76,8.6-10.67,15.1-10.89s13.08,5.86,11.73,12.22c3.68.35,7.19-3.34,10.67-2.08,2.43.88,3.42,3.73,4.09,6.23.83,3.06,1.36,7-1.27,8.78a7.65,7.65,0,0,1-2.26.9c-10.08,2.83-20.38,5.5-30.84,5.15C6628.88,7199.88,6606.78,7194.06,6612.53,7179.66Z" transform="translate(-6131.09 -6992.3)" fill="#ea96ed"/><path d="M7583.14,7293.38c.73-1.83,1.74-3.78,3.59-4.45a6.94,6.94,0,0,1,3.68,0,41.54,41.54,0,0,1,12.66,4.72c3-5.76,8.6-10.67,15.1-10.89s13.08,5.86,11.73,12.22c3.68.35,7.19-3.34,10.67-2.08,2.43.88,3.42,3.73,4.09,6.23.83,3.06,1.36,7-1.27,8.78a7.65,7.65,0,0,1-2.26.9c-10.08,2.83-20.38,5.5-30.84,5.15C7599.49,7313.6,7577.4,7307.78,7583.14,7293.38Z" transform="translate(-6131.09 -6992.3)" fill="#ea96ed"/><path d="M6928.82,7050.27a26.15,26.15,0,0,1,19.09,1.51c5.37,2.53,10.35,7.57,9.9,13.49-.43,5.77-5.64,9.84-10.39,13.15a13.42,13.42,0,0,1,20.84,14.41c-1.48,5.37-6.24,9.36-11.49,11.22s-11,1.9-16.51,1.6c-2-.1-4-.23-5.83.62s-2.83,2.31-4.14,3.59c-7.17,7-20.36,6.11-26.57-1.73-.81-1-1.59-2.19-2.82-2.61a5.83,5.83,0,0,0-2.91,0,330.14,330.14,0,0,1-43,5c-5.48.27-11.17.37-16.2-1.83-10.31-4.51-14.3-19.32-7.66-28.4,3.59-4.9,9.43-7.83,15.41-8.86s12.14-.34,18.1.88c-4.35-4.1-3.31-11.14-1.94-17a12.2,12.2,0,0,1,1.4-3.89,10,10,0,0,1,3.88-3.19c9.55-5.07,21.94-3.53,30.45,2.93,4.88,3.7,8.4,9.5,15.67,8.54C6919.66,7059,6923,7052.18,6928.82,7050.27Z" transform="translate(-6131.09 -6992.3)" fill="#ea96ed"/><path d="M7917.57,7260.3a18.74,18.74,0,0,0-13.54,2.21c-3.69,2.13-6.94,6-6.27,10.22s4.61,6.7,8.2,8.78a9.62,9.62,0,0,0-14,11.52c1.37,3.75,5,6.32,8.87,7.34s7.93.71,11.89.17a8.61,8.61,0,0,1,4.2.1,12.15,12.15,0,0,1,3.17,2.32c5.54,4.55,14.91,3.16,18.88-2.81a5,5,0,0,1,1.86-2,4.18,4.18,0,0,1,2.08-.15,236.62,236.62,0,0,0,31,1c3.93-.13,8-.4,11.46-2.27,7.09-3.83,9.07-14.65,3.79-20.74a17.2,17.2,0,0,0-11.53-5.41,35.23,35.23,0,0,0-12.87,1.7c2.86-3.19,1.71-8.16.38-12.23a8.74,8.74,0,0,0-1.23-2.7,7.2,7.2,0,0,0-3-2.05c-7.12-3.06-15.88-1.22-21.58,3.9-3.27,2.93-5.43,7.28-10.69,7C7924.63,7266,7921.81,7261.32,7917.57,7260.3Z" transform="translate(-6131.09 -6992.3)" fill="#ea96ed"/><path d="M6374.28,7050.11a19.05,19.05,0,0,0-13.77,2.25c-3.75,2.16-7.06,6.12-6.38,10.4s4.69,6.81,8.34,8.92a9.78,9.78,0,0,0-14.26,11.72c1.4,3.81,5.1,6.42,9,7.46s8.07.72,12.09.17a8.75,8.75,0,0,1,4.27.1,12.35,12.35,0,0,1,3.22,2.35c5.63,4.63,15.15,3.21,19.19-2.85a5,5,0,0,1,1.89-2.07,4.25,4.25,0,0,1,2.12-.15,240.56,240.56,0,0,0,31.49,1c4-.13,8.13-.41,11.65-2.31,7.21-3.89,9.22-14.89,3.85-21.08a17.48,17.48,0,0,0-11.73-5.5,35.81,35.81,0,0,0-13.09,1.73c2.91-3.24,1.73-8.29.39-12.43a8.89,8.89,0,0,0-1.25-2.74,7.32,7.32,0,0,0-3-2.08c-7.24-3.11-16.14-1.24-21.93,4-3.32,3-5.53,7.4-10.87,7.15C6381.45,7055.9,6378.58,7051.14,6374.28,7050.11Z" transform="translate(-6131.09 -6992.3)" fill="#ea96ed"/><path d="M6970,7246.28c4.44.78,7.46,6.58,4.87,10.27a57,57,0,0,1,38.25,4.59c1.45.73,3,1.66,3.54,3.19,1.1,3.07-2.35,5.78-5.41,6.89-7.73,2.8-16.15,2.89-24.37,2.81-29.2-.28-58.63-2.31-87.44,2.49-17.08,2.85-34,8.09-51.28,7.41-5.21-.21-11.82-2.43-11.86-7.64,0-4.46,5-7.12,9.33-8.07,13.93-3,28.5.68,42.66-.94,1.5-.17,3.19-.53,4-1.82s.39-2.61.19-3.94c-1.08-7.31,2.32-15.41,8.93-18.71s15.94-.42,18.59,6.48c.5,1.3.77,2.69,1.38,3.94a8.09,8.09,0,0,0,10,3.74c1.32-.56,2.47-1.48,3.81-2,4.22-1.67,8.77.88,13.14,2.11C6959.82,7260.3,6959.86,7244.49,6970,7246.28Z" transform="translate(-6131.09 -6992.3)" fill="#ea96ed"/><path d="M6228.5,7195.45c3.24.57,5.43,4.79,3.55,7.49a41.53,41.53,0,0,1,27.87,3.35,4.75,4.75,0,0,1,2.58,2.33c.8,2.23-1.71,4.21-3.94,5-5.63,2-11.76,2.11-17.75,2.05-21.27-.2-42.72-1.69-63.7,1.81-12.44,2.07-24.76,5.9-37.36,5.4-3.8-.15-8.61-1.77-8.64-5.57,0-3.25,3.62-5.19,6.8-5.88,10.15-2.21,20.76.5,31.08-.69a3.67,3.67,0,0,0,2.88-1.33,4.34,4.34,0,0,0,.14-2.87c-.79-5.32,1.69-11.23,6.51-13.63s11.61-.31,13.54,4.72c.36.95.56,2,1,2.87a5.9,5.9,0,0,0,7.32,2.72c1-.41,1.8-1.08,2.77-1.46,3.07-1.21,6.39.64,9.57,1.54C6221.08,7205.67,6221.11,7194.15,6228.5,7195.45Z" transform="translate(-6131.09 -6992.3)" fill="#ea96ed"/><path d="M7499,7134.27c3.24.57,5.43,4.79,3.55,7.49a41.53,41.53,0,0,1,27.87,3.35,4.75,4.75,0,0,1,2.58,2.33c.8,2.23-1.71,4.21-3.94,5-5.63,2-11.76,2.11-17.75,2.05-21.27-.2-42.72-1.69-63.7,1.81-12.44,2.07-24.76,5.9-37.36,5.4-3.8-.15-8.61-1.77-8.64-5.57,0-3.25,3.62-5.19,6.8-5.88,10.15-2.21,20.76.5,31.08-.69a3.67,3.67,0,0,0,2.88-1.33,4.34,4.34,0,0,0,.14-2.87c-.79-5.32,1.69-11.23,6.51-13.63s11.61-.31,13.54,4.72c.36.95.56,2,1,2.87a5.9,5.9,0,0,0,7.32,2.72c1-.41,1.8-1.08,2.77-1.46,3.07-1.21,6.39.64,9.57,1.54C7491.53,7144.49,7491.56,7133,7499,7134.27Z" transform="translate(-6131.09 -6992.3)" fill="#ea96ed"/><path d="M8834.74,7390.16c-1,2.12-.88,4.56-.73,6.89a10.44,10.44,0,0,0,1.23,5.14c1.72,2.63,5.28,3.17,8.41,3.44q30.08,2.56,60.32,2.15c15.77-.21,31.52-1,47.26-1.86,3.89-.2,9-1.66,8.88-5.56-.11-3.05-3.72-4.74-6.78-4.74-6.7,0-14.41,4.29-19.41-.16-1.52-1.35-2.44-3.33-4.17-4.39-3.64-2.23-8.08.72-12.08,2.18a4.55,4.55,0,0,1-3.76.09c-2.58-1.47-1-5.31-.24-8.19,1.6-6.21-3.37-12.9-9.62-14.29s-12.94,1.78-16.92,6.81c-1.14,1.44-2.14,3.06-3.68,4.07s-3.86,1.14-5-.29a11.5,11.5,0,0,1-1.09-2.24c-1.92-3.86-7.37-3.76-11.63-3.1-3.24.51-6.95,1-9.67,3-2.11,1.55-3.08,5.79-5.15,6.79C8845.74,7388.37,8838.48,7382.12,8834.74,7390.16Z" transform="translate(-6131.09 -6992.3)" fill="#ea96ed"/><path d="M9203,7183.21c1,2.12.88,4.56.73,6.89a10.44,10.44,0,0,1-1.23,5.14c-1.72,2.63-5.28,3.17-8.41,3.44q-30.08,2.56-60.32,2.15c-15.77-.21-31.52-1-47.26-1.86-3.89-.2-9-1.66-8.88-5.56.11-3.05,3.72-4.74,6.78-4.74,6.7,0,14.41,4.29,19.41-.16,1.52-1.35,2.44-3.33,4.17-4.39,3.64-2.23,8.08.72,12.08,2.18a4.55,4.55,0,0,0,3.76.09c2.58-1.47,1-5.31.24-8.19-1.6-6.21,3.37-12.9,9.62-14.29s12.94,1.78,16.92,6.81c1.14,1.44,2.14,3.06,3.68,4.07s3.86,1.14,5-.29a11.5,11.5,0,0,0,1.09-2.24c1.92-3.86,7.37-3.76,11.63-3.1,3.24.51,6.95,1,9.67,3,2.11,1.55,3.08,5.79,5.15,6.79C9192,7181.42,9199.25,7175.17,9203,7183.21Z" transform="translate(-6131.09 -6992.3)" fill="#ea96ed"/><path d="M8741.66,7059c1.3,2.79,1.16,6,1,9.09-.15,2.35-.34,4.81-1.62,6.77-2.26,3.47-7,4.18-11.09,4.54q-39.68,3.38-79.56,2.84c-20.8-.28-41.57-1.37-62.34-2.46-5.13-.27-11.9-2.2-11.71-7.33.14-4,4.91-6.26,8.94-6.26,8.83,0,19,5.66,25.61-.21,2-1.78,3.22-4.4,5.5-5.79,4.8-2.94,10.65.95,15.94,2.87,1.6.58,3.47,1,5,.12,3.4-1.94,1.29-7,.31-10.8-2.11-8.19,4.44-17,12.69-18.85s17.07,2.35,22.32,9c1.51,1.9,2.83,4,4.86,5.36s5.09,1.51,6.62-.38a15.17,15.17,0,0,0,1.44-2.95c2.54-5.09,9.72-5,15.34-4.08,4.28.67,9.16,1.32,12.75,4,2.78,2,4.06,7.64,6.79,9C8727.16,7056.67,8736.73,7048.43,8741.66,7059Z" transform="translate(-6131.09 -6992.3)" fill="#ea96ed"/><path d="M8404.86,7274.72c-.73-1.83-1.74-3.78-3.59-4.45a6.94,6.94,0,0,0-3.68,0,41.54,41.54,0,0,0-12.66,4.72c-3-5.76-8.6-10.67-15.1-10.89s-13.08,5.86-11.73,12.22c-3.68.35-7.19-3.34-10.67-2.08-2.43.88-3.42,3.73-4.09,6.23-.83,3.06-1.36,7,1.27,8.78a7.65,7.65,0,0,0,2.26.9c10.08,2.83,20.38,5.5,30.84,5.15C8388.51,7294.95,8410.6,7289.13,8404.86,7274.72Z" transform="translate(-6131.09 -6992.3)" fill="#ea96ed"/><path d="M8399,7052.74c-.73-1.83-1.74-3.78-3.59-4.45a6.94,6.94,0,0,0-3.68,0,41.54,41.54,0,0,0-12.66,4.72c-3-5.76-8.6-10.67-15.1-10.89s-13.08,5.86-11.73,12.22c-3.68.35-7.19-3.34-10.67-2.08-2.43.88-3.42,3.73-4.09,6.23-.83,3.06-1.36,7,1.27,8.78a7.65,7.65,0,0,0,2.26.9c10.08,2.83,20.38,5.5,30.84,5.15C8382.66,7073,8404.76,7067.15,8399,7052.74Z" transform="translate(-6131.09 -6992.3)" fill="#ea96ed"/><path d="M8709.81,7243.32a18.74,18.74,0,0,1,13.54,2.21c3.69,2.13,6.94,6,6.27,10.22s-4.61,6.7-8.2,8.78a9.62,9.62,0,0,1,14,11.52c-1.37,3.75-5,6.32-8.87,7.34s-7.93.71-11.89.17a8.61,8.61,0,0,0-4.2.1,12.15,12.15,0,0,0-3.17,2.32c-5.54,4.55-14.91,3.16-18.88-2.81a5,5,0,0,0-1.86-2,4.18,4.18,0,0,0-2.08-.15,236.62,236.62,0,0,1-31,1c-3.93-.13-8-.4-11.46-2.27-7.09-3.83-9.07-14.65-3.79-20.74a17.2,17.2,0,0,1,11.53-5.41,35.23,35.23,0,0,1,12.87,1.7c-2.86-3.19-1.71-8.16-.38-12.23a8.74,8.74,0,0,1,1.23-2.7,7.2,7.2,0,0,1,3-2.05c7.12-3.06,15.88-1.22,21.58,3.9,3.27,2.93,5.43,7.28,10.69,7C8702.75,7249,8705.58,7244.33,8709.81,7243.32Z" transform="translate(-6131.09 -6992.3)" fill="#ea96ed"/><path d="M8063.06,7134.27c-3.24.57-5.43,4.79-3.55,7.49a41.53,41.53,0,0,0-27.87,3.35,4.75,4.75,0,0,0-2.58,2.33c-.8,2.23,1.71,4.21,3.94,5,5.63,2,11.76,2.11,17.75,2.05,21.27-.2,42.72-1.69,63.7,1.81,12.44,2.07,24.76,5.9,37.36,5.4,3.8-.15,8.61-1.77,8.64-5.57,0-3.25-3.62-5.19-6.8-5.88-10.15-2.21-20.76.5-31.08-.69a3.67,3.67,0,0,1-2.88-1.33,4.34,4.34,0,0,1-.14-2.87c.79-5.32-1.69-11.23-6.51-13.63s-11.61-.31-13.54,4.72c-.36.95-.56,2-1,2.87a5.9,5.9,0,0,1-7.32,2.72c-1-.41-1.8-1.08-2.77-1.46-3.07-1.21-6.39.64-9.57,1.54C8070.48,7144.49,8070.45,7133,8063.06,7134.27Z" transform="translate(-6131.09 -6992.3)" fill="#ea96ed"/><path d="M10908.51,7464.61c-1,2.12-.88,4.56-.73,6.89a10.44,10.44,0,0,0,1.23,5.14c1.72,2.63,5.28,3.17,8.41,3.44q30.08,2.56,60.32,2.15c15.77-.21,31.52-1,47.26-1.86,3.89-.2,9-1.66,8.88-5.56-.11-3.05-3.72-4.74-6.78-4.74-6.7,0-14.41,4.29-19.41-.16-1.52-1.35-2.44-3.33-4.17-4.39-3.64-2.23-8.08.72-12.08,2.18a4.55,4.55,0,0,1-3.76.09c-2.58-1.47-1-5.31-.24-8.19,1.6-6.21-3.37-12.9-9.62-14.29s-12.94,1.78-16.92,6.81c-1.14,1.44-2.14,3.06-3.68,4.07s-3.86,1.14-5-.29a11.5,11.5,0,0,1-1.09-2.24c-1.92-3.86-7.37-3.76-11.63-3.1-3.24.51-6.95,1-9.67,3-2.11,1.55-3.08,5.79-5.15,6.79C10919.5,7462.82,10912.25,7456.57,10908.51,7464.61Z" transform="translate(-6131.09 -6992.3)" fill="#ea96ed"/><path d="M9481.26,7446c-1,2.12-.88,4.56-.73,6.89a10.44,10.44,0,0,0,1.23,5.14c1.72,2.63,5.28,3.17,8.41,3.44q30.08,2.56,60.32,2.15c15.77-.21,31.52-1,47.26-1.86,3.89-.2,9-1.66,8.88-5.56-.11-3.05-3.72-4.74-6.78-4.74-6.7,0-14.41,4.29-19.41-.16-1.52-1.35-2.44-3.33-4.17-4.39-3.64-2.23-8.08.72-12.08,2.18a4.55,4.55,0,0,1-3.76.09c-2.58-1.47-1-5.31-.24-8.19,1.6-6.21-3.37-12.9-9.62-14.29s-12.94,1.78-16.92,6.81c-1.14,1.44-2.14,3.06-3.68,4.07s-3.86,1.14-5-.29a11.5,11.5,0,0,1-1.09-2.24c-1.92-3.86-7.37-3.76-11.63-3.1-3.24.51-6.95,1-9.67,3-2.11,1.55-3.08,5.79-5.15,6.79C9492.25,7444.17,9485,7437.92,9481.26,7446Z" transform="translate(-6131.09 -6992.3)" fill="#ea96ed"/><path d="M10351.15,7033.82c1.3,2.79,1.16,6,1,9.09-.15,2.35-.34,4.81-1.62,6.77-2.26,3.47-7,4.18-11.09,4.54q-39.68,3.38-79.56,2.84c-20.8-.28-41.57-1.37-62.34-2.46-5.13-.27-11.9-2.2-11.71-7.33.14-4,4.91-6.26,8.94-6.26,8.83,0,19,5.66,25.61-.21,2-1.78,3.22-4.4,5.5-5.79,4.8-2.94,10.65.95,15.94,2.87,1.6.58,3.47,1,5,.12,3.4-1.94,1.29-7,.31-10.8-2.11-8.19,4.44-17,12.69-18.85s17.07,2.35,22.32,9c1.51,1.9,2.83,4,4.86,5.36s5.09,1.51,6.62-.38a15.17,15.17,0,0,0,1.44-2.95c2.54-5.09,9.72-5,15.34-4.08,4.28.67,9.16,1.32,12.75,4,2.78,2,4.06,7.64,6.79,9C10336.66,7031.47,10346.22,7023.23,10351.15,7033.82Z" transform="translate(-6131.09 -6992.3)" fill="#ea96ed"/><path d="M11554.06,7396.42c1.3,2.79,1.16,6,1,9.09-.15,2.35-.34,4.81-1.62,6.77-2.26,3.47-7,4.18-11.09,4.54q-39.68,3.38-79.56,2.84c-20.8-.28-41.57-1.37-62.34-2.46-5.13-.27-11.9-2.2-11.71-7.33.14-4,4.91-6.26,8.94-6.26,8.83,0,19,5.66,25.61-.21,2-1.78,3.22-4.4,5.5-5.79,4.8-2.94,10.65.95,15.94,2.87,1.6.58,3.47,1,5,.12,3.4-1.94,1.29-7,.31-10.8-2.11-8.19,4.44-17,12.69-18.85s17.07,2.35,22.32,9c1.51,1.9,2.83,4,4.86,5.36s5.09,1.51,6.62-.38a15.17,15.17,0,0,0,1.44-2.95c2.54-5.09,9.72-5,15.34-4.08,4.28.67,9.16,1.32,12.75,4,2.78,2,4.06,7.64,6.79,9C11539.56,7394.06,11549.13,7385.82,11554.06,7396.42Z" transform="translate(-6131.09 -6992.3)" fill="#ea96ed"/><path d="M10813.39,7062.22c-.73-1.83-1.74-3.78-3.59-4.45a6.94,6.94,0,0,0-3.68,0,41.54,41.54,0,0,0-12.66,4.72c-3-5.76-8.6-10.67-15.1-10.89s-13.08,5.86-11.73,12.22c-3.68.35-7.19-3.34-10.67-2.08-2.43.88-3.42,3.73-4.09,6.23-.83,3.06-1.36,7,1.27,8.78a7.65,7.65,0,0,0,2.26.9c10.08,2.83,20.38,5.5,30.84,5.15C10797,7082.45,10819.14,7076.63,10813.39,7062.22Z" transform="translate(-6131.09 -6992.3)" fill="#ea96ed"/><path d="M11375.13,7142.35c-.73-1.83-1.74-3.78-3.59-4.45a6.94,6.94,0,0,0-3.68,0,41.54,41.54,0,0,0-12.66,4.72c-3-5.76-8.6-10.67-15.1-10.89s-13.08,5.86-11.73,12.22c-3.68.35-7.19-3.34-10.67-2.08-2.43.88-3.42,3.73-4.09,6.23-.83,3.06-1.36,7,1.27,8.78a7.65,7.65,0,0,0,2.26.9c10.08,2.83,20.38,5.5,30.84,5.15C11358.78,7162.57,11380.88,7156.75,11375.13,7142.35Z" transform="translate(-6131.09 -6992.3)" fill="#ea96ed"/><path d="M10551,7290.91c-.73-1.83-1.74-3.78-3.59-4.45a6.94,6.94,0,0,0-3.68,0,41.54,41.54,0,0,0-12.66,4.72c-3-5.76-8.6-10.67-15.1-10.89s-13.08,5.86-11.73,12.22c-3.68.35-7.19-3.34-10.67-2.08-2.43.88-3.42,3.73-4.09,6.23-.83,3.06-1.36,7,1.27,8.78a7.65,7.65,0,0,0,2.26.9c10.08,2.83,20.38,5.5,30.84,5.15C10534.62,7311.14,10556.71,7305.32,10551,7290.91Z" transform="translate(-6131.09 -6992.3)" fill="#ea96ed"/><path d="M11058.84,7013a26.15,26.15,0,0,0-19.09,1.51c-5.37,2.53-10.35,7.57-9.9,13.49.43,5.77,5.64,9.84,10.39,13.15a13.42,13.42,0,0,0-20.84,14.41c1.48,5.37,6.24,9.36,11.49,11.22s11,1.9,16.51,1.6c2-.1,4-.23,5.83.62s2.83,2.31,4.14,3.59c7.17,7,20.36,6.11,26.57-1.73.81-1,1.59-2.19,2.82-2.61a5.83,5.83,0,0,1,2.91,0,330.14,330.14,0,0,0,43,5c5.48.27,11.17.37,16.2-1.83,10.31-4.51,14.3-19.32,7.66-28.4-3.59-4.9-9.43-7.83-15.41-8.86s-12.14-.34-18.1.88c4.35-4.1,3.31-11.14,1.94-17a12.2,12.2,0,0,0-1.4-3.89,10,10,0,0,0-3.88-3.19c-9.55-5.07-21.94-3.53-30.45,2.93-4.88,3.7-8.4,9.5-15.67,8.54C11068,7021.7,11064.61,7014.87,11058.84,7013Z" transform="translate(-6131.09 -6992.3)" fill="#ea96ed"/><path d="M10019.73,7248.93a18.74,18.74,0,0,1,13.54,2.21c3.69,2.13,6.94,6,6.27,10.22s-4.61,6.7-8.2,8.78a9.62,9.62,0,0,1,14,11.52c-1.37,3.75-5,6.32-8.87,7.34s-7.93.71-11.89.17a8.61,8.61,0,0,0-4.2.1,12.15,12.15,0,0,0-3.17,2.32c-5.54,4.55-14.91,3.16-18.88-2.81a5,5,0,0,0-1.86-2,4.18,4.18,0,0,0-2.08-.15,236.62,236.62,0,0,1-31,1c-3.93-.13-8-.4-11.46-2.27-7.09-3.83-9.07-14.65-3.79-20.74a17.2,17.2,0,0,1,11.53-5.41,35.23,35.23,0,0,1,12.87,1.7c-2.86-3.19-1.71-8.16-.38-12.23a8.74,8.74,0,0,1,1.23-2.7,7.2,7.2,0,0,1,3-2.05c7.12-3.06,15.88-1.22,21.58,3.9,3.27,2.93,5.43,7.28,10.69,7C10012.67,7254.63,10015.49,7250,10019.73,7248.93Z" transform="translate(-6131.09 -6992.3)" fill="#ea96ed"/><path d="M11613.38,7073.71a19.05,19.05,0,0,1,13.77,2.25c3.75,2.16,7.06,6.12,6.38,10.4s-4.69,6.81-8.34,8.92a9.78,9.78,0,0,1,14.26,11.72c-1.4,3.81-5.1,6.42-9,7.46s-8.07.72-12.09.17a8.75,8.75,0,0,0-4.27.1,12.35,12.35,0,0,0-3.22,2.35c-5.63,4.63-15.15,3.21-19.19-2.85a5,5,0,0,0-1.89-2.07,4.25,4.25,0,0,0-2.12-.15,240.56,240.56,0,0,1-31.49,1c-4-.13-8.13-.41-11.65-2.31-7.21-3.89-9.22-14.89-3.85-21.08a17.48,17.48,0,0,1,11.73-5.5,35.81,35.81,0,0,1,13.09,1.73c-2.91-3.24-1.73-8.29-.39-12.43a8.89,8.89,0,0,1,1.25-2.74,7.32,7.32,0,0,1,3-2.08c7.24-3.11,16.14-1.24,21.93,4,3.32,3,5.53,7.4,10.87,7.15C11606.21,7079.5,11609.08,7074.74,11613.38,7073.71Z" transform="translate(-6131.09 -6992.3)" fill="#ea96ed"/><path d="M10940.56,7251.89c-4.44.78-7.46,6.58-4.87,10.27a57,57,0,0,0-38.25,4.59c-1.45.73-3,1.66-3.54,3.19-1.1,3.07,2.35,5.78,5.41,6.89,7.73,2.8,16.15,2.89,24.37,2.81,29.2-.28,58.63-2.31,87.44,2.49,17.08,2.85,34,8.09,51.28,7.41,5.21-.21,11.82-2.43,11.86-7.64,0-4.46-5-7.12-9.33-8.07-13.93-3-28.5.68-42.66-.94-1.5-.17-3.19-.53-4-1.82s-.39-2.61-.19-3.94c1.08-7.31-2.32-15.41-8.93-18.71s-15.94-.42-18.59,6.48c-.5,1.3-.77,2.69-1.38,3.94a8.09,8.09,0,0,1-10,3.74c-1.32-.56-2.47-1.48-3.81-2-4.22-1.67-8.77.88-13.14,2.11C10950.75,7265.92,10950.7,7250.11,10940.56,7251.89Z" transform="translate(-6131.09 -6992.3)" fill="#ea96ed"/><path d="M11759.16,7203c-3.24.57-5.43,4.79-3.55,7.49a41.53,41.53,0,0,0-27.87,3.35,4.75,4.75,0,0,0-2.58,2.33c-.8,2.23,1.71,4.21,3.94,5,5.63,2,11.76,2.11,17.75,2.05,21.27-.2,42.72-1.69,63.7,1.81,12.44,2.07,24.76,5.9,37.36,5.4,3.8-.15,8.61-1.77,8.64-5.57,0-3.25-3.62-5.19-6.8-5.88-10.15-2.21-20.76.5-31.08-.69a3.67,3.67,0,0,1-2.88-1.33,4.34,4.34,0,0,1-.14-2.87c.79-5.32-1.69-11.23-6.51-13.63s-11.61-.31-13.54,4.72c-.36.95-.56,2-1,2.87a5.9,5.9,0,0,1-7.32,2.72c-1-.41-1.8-1.08-2.77-1.46-3.07-1.21-6.39.64-9.57,1.54C11766.58,7213.24,11766.55,7201.72,11759.16,7203Z" transform="translate(-6131.09 -6992.3)" fill="#ea96ed"/><path d="M10488.7,7097c-3.24.57-5.43,4.79-3.55,7.49a41.53,41.53,0,0,0-27.87,3.35,4.75,4.75,0,0,0-2.58,2.33c-.8,2.23,1.71,4.21,3.94,5,5.63,2,11.76,2.11,17.75,2.05,21.27-.2,42.72-1.69,63.7,1.81,12.44,2.07,24.76,5.9,37.36,5.4,3.8-.15,8.61-1.77,8.64-5.57,0-3.25-3.62-5.19-6.8-5.88-10.15-2.21-20.76.5-31.08-.69a3.67,3.67,0,0,1-2.88-1.33,4.34,4.34,0,0,1-.14-2.87c.79-5.32-1.69-11.23-6.51-13.63s-11.61-.31-13.54,4.72c-.36.95-.56,2-1,2.87a5.9,5.9,0,0,1-7.32,2.72c-1-.41-1.8-1.08-2.77-1.46-3.07-1.21-6.39.64-9.57,1.54C10496.13,7107.18,10496.1,7095.66,10488.7,7097Z" transform="translate(-6131.09 -6992.3)" fill="#ea96ed"/><path d="M9266.08,7352.85c1,2.12.88,4.56.73,6.89a10.44,10.44,0,0,1-1.23,5.14c-1.72,2.63-5.28,3.17-8.41,3.44q-30.08,2.56-60.32,2.15c-15.77-.21-31.52-1-47.26-1.86-3.89-.2-9-1.66-8.88-5.56.11-3.05,3.72-4.74,6.78-4.74,6.7,0,14.41,4.29,19.41-.16,1.52-1.35,2.44-3.33,4.17-4.39,3.64-2.23,8.08.72,12.08,2.18a4.55,4.55,0,0,0,3.76.09c2.58-1.47,1-5.31.24-8.19-1.6-6.21,3.37-12.9,9.62-14.29s12.94,1.78,16.92,6.81c1.14,1.44,2.14,3.06,3.68,4.07s3.86,1.14,5-.29a11.5,11.5,0,0,0,1.09-2.24c1.92-3.86,7.37-3.76,11.63-3.1,3.24.51,6.95,1,9.67,3,2.11,1.55,3.08,5.79,5.15,6.79C9255.09,7351.06,9262.35,7344.81,9266.08,7352.85Z" transform="translate(-6131.09 -6992.3)" fill="#ea96ed"/><path d="M8784.68,7145.9c-1,2.12-.88,4.56-.73,6.89a10.44,10.44,0,0,0,1.23,5.14c1.72,2.63,5.28,3.17,8.41,3.44q30.08,2.56,60.32,2.15c15.77-.21,31.52-1,47.26-1.86,3.89-.2,9-1.66,8.88-5.56-.11-3.05-3.72-4.74-6.78-4.74-6.7,0-14.41,4.29-19.41-.16-1.52-1.35-2.44-3.33-4.17-4.39-3.64-2.23-8.08.72-12.08,2.18a4.55,4.55,0,0,1-3.76.09c-2.58-1.47-1-5.31-.24-8.19,1.6-6.21-3.37-12.9-9.62-14.29s-12.94,1.78-16.92,6.81c-1.14,1.44-2.14,3.06-3.68,4.07s-3.86,1.14-5-.29a11.5,11.5,0,0,1-1.09-2.24c-1.92-3.86-7.37-3.76-11.63-3.1-3.24.51-6.95,1-9.67,3-2.11,1.55-3.08,5.79-5.15,6.79C8795.67,7144.11,8788.41,7137.86,8784.68,7145.9Z" transform="translate(-6131.09 -6992.3)" fill="#ea96ed"/><path d="M10213.47,7415.07c-1.3,2.79-1.16,6-1,9.09.15,2.35.34,4.81,1.62,6.77,2.26,3.47,7,4.18,11.09,4.54q39.68,3.38,79.56,2.84c20.8-.28,41.57-1.37,62.34-2.46,5.13-.27,11.9-2.2,11.71-7.33-.14-4-4.91-6.26-8.94-6.26-8.83,0-19,5.66-25.61-.21-2-1.78-3.22-4.4-5.5-5.79-4.8-2.94-10.65.95-15.94,2.87-1.6.58-3.47,1-5,.12-3.4-1.94-1.29-7-.31-10.8,2.11-8.19-4.44-17-12.69-18.85s-17.07,2.35-22.32,9c-1.51,1.9-2.83,4-4.86,5.36s-5.09,1.51-6.62-.38a15.17,15.17,0,0,1-1.44-2.95c-2.54-5.09-9.72-5-15.34-4.08-4.28.67-9.16,1.32-12.75,4-2.78,2-4.06,7.64-6.79,9C10228,7412.72,10218.4,7404.48,10213.47,7415.07Z" transform="translate(-6131.09 -6992.3)" fill="#ea96ed"/><path d="M9582.8,7237.41c.73-1.83,1.74-3.78,3.59-4.45a6.94,6.94,0,0,1,3.68,0,41.54,41.54,0,0,1,12.66,4.72c3-5.76,8.6-10.67,15.1-10.89s13.08,5.86,11.73,12.22c3.68.35,7.19-3.34,10.67-2.08,2.43.88,3.42,3.73,4.09,6.23.83,3.06,1.36,7-1.27,8.78a7.65,7.65,0,0,1-2.26.9c-10.08,2.83-20.38,5.5-30.84,5.15C9599.15,7257.64,9577.06,7251.82,9582.8,7237.41Z" transform="translate(-6131.09 -6992.3)" fill="#ea96ed"/><path d="M9321.74,7002.93c.73-1.83,1.74-3.78,3.59-4.45a6.94,6.94,0,0,1,3.68,0,41.54,41.54,0,0,1,12.66,4.72c3-5.76,8.6-10.67,15.1-10.89s13.08,5.86,11.73,12.22c3.68.35,7.19-3.34,10.67-2.08,2.43.88,3.42,3.73,4.09,6.23.83,3.06,1.36,7-1.27,8.78a7.65,7.65,0,0,1-2.26.9c-10.08,2.83-20.38,5.5-30.84,5.15C9338.09,7023.16,9316,7017.34,9321.74,7002.93Z" transform="translate(-6131.09 -6992.3)" fill="#ea96ed"/><path d="M9456.27,7125.51a18.74,18.74,0,0,0-13.54,2.21c-3.69,2.13-6.94,6-6.27,10.22s4.61,6.7,8.2,8.78a9.62,9.62,0,0,0-14,11.52c1.37,3.75,5,6.32,8.87,7.34s7.93.71,11.89.17a8.61,8.61,0,0,1,4.2.1,12.15,12.15,0,0,1,3.17,2.32c5.54,4.55,14.91,3.16,18.88-2.81a5,5,0,0,1,1.86-2,4.18,4.18,0,0,1,2.08-.15,236.62,236.62,0,0,0,31,1c3.93-.13,8-.4,11.46-2.27,7.09-3.83,9.07-14.65,3.79-20.74a17.2,17.2,0,0,0-11.53-5.41,35.23,35.23,0,0,0-12.87,1.7c2.86-3.19,1.71-8.16.38-12.23a8.74,8.74,0,0,0-1.23-2.7,7.2,7.2,0,0,0-3-2.05c-7.12-3.06-15.88-1.22-21.58,3.9-3.27,2.93-5.43,7.28-10.69,7C9463.33,7131.2,9460.51,7126.53,9456.27,7125.51Z" transform="translate(-6131.09 -6992.3)" fill="#ea96ed"/><path d="M9924.6,7097c3.24.57,5.43,4.79,3.55,7.49a41.53,41.53,0,0,1,27.87,3.35,4.75,4.75,0,0,1,2.58,2.33c.8,2.23-1.71,4.21-3.94,5-5.63,2-11.76,2.11-17.75,2.05-21.27-.2-42.72-1.69-63.7,1.81-12.44,2.07-24.76,5.9-37.36,5.4-3.8-.15-8.61-1.77-8.64-5.57,0-3.25,3.62-5.19,6.8-5.88,10.15-2.21,20.76.5,31.08-.69a3.67,3.67,0,0,0,2.88-1.33,4.34,4.34,0,0,0,.14-2.87c-.79-5.32,1.69-11.23,6.51-13.63s11.61-.31,13.54,4.72c.36.95.56,2,1,2.87a5.9,5.9,0,0,0,7.32,2.72c1-.41,1.8-1.08,2.77-1.46,3.07-1.21,6.39.64,9.57,1.54C9917.18,7107.18,9917.21,7095.66,9924.6,7097Z" transform="translate(-6131.09 -6992.3)" fill="#ea96ed"/></svg>