<svg xmlns="http://www.w3.org/2000/svg" width="159.66" height="207.74" viewBox="0 0 159.66 207.74"><title>ptah</title><g style="isolation:isolate"><path d="M7115,7236.49c-.43-1.86,11.61-5.61,14.52-4.84,2.9-1.94,16.07-7.16,19.36-16.65s8.32-73,11.23-78.59,5.42-18.78,21.68-19.74,46.26-5.61,54,0,21.1,19.55,22.26,55.94-.77,87.88-1.55,91.17-3.1,14.13-24,17.42-34.46,8.13-48.59,5.81S7121.93,7266.88,7115,7236.49Z" transform="translate(-7114.95 -7113.95)" fill="#6797a1"/><path d="M7209.4,7119.65c6.11-.79,12.21-1.68,18.35-2.18,2.49-.2,5.16-.3,7.28,1a12,12,0,0,1,3.79,4.66q4.72,8.48,8.59,17.4a46.16,46.16,0,0,1,2.68,7.45,52.27,52.27,0,0,1,1.1,9.52l2.45,45.31c.66,12.28,1.26,25-3.22,36.45-1.66,4.26-4.76,8.74-9.32,9-2.93.16-5.71-1.57-7.55-3.86a27.94,27.94,0,0,1-3.95-7.84l-10-26.52a19.66,19.66,0,0,0-3.09-6,16.93,16.93,0,0,0-4.7-3.54c-9.45-5.32-20.38-8.17-28.7-15.13-12.31-10.3-16.41-27.83-14.89-43.81.63-6.56,3.06-15.84,10-18.57,4.11-1.62,10.17-1,14.57-1.45Q7201.1,7120.73,7209.4,7119.65Z" transform="translate(-7114.95 -7113.95)" fill="#6fa1a8"/><path d="M7161.2,7154.43c.13-3.26.47-7.06,3.21-8.84a6.59,6.59,0,0,1,6.84.25,14.78,14.78,0,0,1,4.76,5.34c4.17,7,6.12,15.13,8.68,22.91s6,15.64,12.23,20.92c7.26,6.14,18,8.6,22.48,17,2.36,4.47,2.38,9.76,2.34,14.82l-.12,16a10.16,10.16,0,0,1-.68,4.38,9.23,9.23,0,0,1-3.15,3.26c-11.12,8-24.94,11-38.41,13.31a67.17,67.17,0,0,1-13.52,1.36,51.1,51.1,0,0,1-12.62-2.23c-6.73-2-13.31-4.76-18.81-9.1s-9.89-10.33-11.42-17.17c5.11-.35,9.66-3.22,14-6l4.26-2.76c2.37-1.54,5-3.42,5.33-6.22a9.1,9.1,0,0,1,.3-2.17c.46-1.18,1.74-1.77,2.74-2.56,4.22-3.34,3-9,3-13.63,0-4.45,1.82-6.85,3.51-10.75C7160.93,7181.51,7160.73,7166.32,7161.2,7154.43Z" transform="translate(-7114.95 -7113.95)" fill="#618d93" opacity="0.45" style="mix-blend-mode:darken"/><path d="M7120.74,7248.35c2,3,5.15,5.11,8.18,7.12,7,4.67,14.13,9.36,21.75,13,9.14,4.4,18.93,7.26,28.75,9.75,14.46,3.65,30.16,6.44,44,.78,3.49-1.43,6.76-3.37,10.31-4.62,5.18-1.82,11.08-2.26,15.3-5.77,3.49-2.9,5.21-7.51,5.57-12s-.48-9.05-1.32-13.52l-2.29-12.18a20,20,0,0,0-2-6.58c-2.47-4.18-7.87-6-12.67-5.24s-9,3.76-12.27,7.33c-4.25,4.61-7.32,10.32-12.11,14.36-6.24,5.27-14.76,7.13-22.93,7.09s-16.23-1.77-24.33-2.85c-10.53-1.4-22.1-1.74-31.28-7.68-3.61-2.34-5.93-4.3-10.41-1.79C7118.12,7238.22,7117.84,7244,7120.74,7248.35Z" transform="translate(-7114.95 -7113.95)" fill="#6797a1" opacity="0.32" style="mix-blend-mode:multiply"/><ellipse cx="7225.57" cy="7171.65" rx="8.39" ry="18.58" transform="translate(-7724.68 -6442.25) rotate(-5.11)" fill="#163335"/><ellipse cx="7225.57" cy="7171.65" rx="7.55" ry="16.72" transform="translate(-7724.68 -6442.25) rotate(-5.11)" fill="#7fb6ba"/><ellipse cx="7246.69" cy="7168.74" rx="4.94" ry="8.42" transform="translate(-7724.34 -6440.39) rotate(-5.11)" fill="#163335"/><ellipse cx="7246.69" cy="7168.74" rx="4.44" ry="7.58" transform="translate(-7724.34 -6440.39) rotate(-5.11)" fill="#7fb6ba"/><path d="M7274.61,7192.15c-10.62,4.1-21.27,8.21-32.3,11a3.52,3.52,0,0,1-1.94.12,3.27,3.27,0,0,1-1.69-1.8,18.28,18.28,0,0,1-1.87-9.38c.16-2.51,1-7.75,3.2-9.38,2-1.46,7.93.73,10.39,1.29q5.83,1.33,11.53,3.19A129.09,129.09,0,0,1,7274.61,7192.15Z" transform="translate(-7114.95 -7113.95)" fill="#163335"/><path d="M7235.17,7280.44s3.48,17.81.77,19.74a19.44,19.44,0,0,1-6.26,2.48c-3,.67-6,.73-7.29-.73" transform="translate(-7114.95 -7113.95)" fill="none" stroke="gray" stroke-miterlimit="10"/><path d="M7224.33,7310.83c-1.74.58,6.94-4.26,7.34-8.71s-4.32-8.13-7.57-8.13" transform="translate(-7114.95 -7113.95)" fill="none" stroke="gray" stroke-miterlimit="10"/><path d="M7194.91,7288.18s1.74,17,1.74,19.94-8.52,8.32-13,5" transform="translate(-7114.95 -7113.95)" fill="none" stroke="gray" stroke-miterlimit="10"/><path d="M7185.23,7307c2.52,1.16,6.2,3.5,6.59,6s.58,6.77-1.65,8.31" transform="translate(-7114.95 -7113.95)" fill="none" stroke="gray" stroke-miterlimit="10"/><path d="M7149.78,7233a1.7,1.7,0,0,0-.81.91,1.63,1.63,0,0,0,.24,1.07,22.51,22.51,0,0,0,10.66,10,35.93,35.93,0,0,0,14.44,3.11,28.75,28.75,0,0,0,12.93-2.25c4-1.87,7.43-5.28,8.57-9.54-8.5-1.91-16.11-6.42-24.5-8.69-3.08-.83-6.92-2.3-10-1.24C7157.25,7227.74,7153.26,7230.65,7149.78,7233Z" transform="translate(-7114.95 -7113.95)" fill="#386366"/><path d="M7195.81,7236.3s-3.45,7.15-7.15,8.8-12,4.74-21.46,2.24-16.82-7.62-18.23-13.41" transform="translate(-7114.95 -7113.95)" fill="none" stroke="#264344" stroke-linecap="round" stroke-linejoin="round" stroke-width="0.5"/></g></svg>